<?xml version="1.0" encoding="utf-8"?>
<!-- Generator: Adobe Illustrator 17.1.0, SVG Export Plug-In . SVG Version: 6.00 Build 0)  -->
<!DOCTYPE svg PUBLIC "-//W3C//DTD SVG 1.1//EN" "http://www.w3.org/Graphics/SVG/1.1/DTD/svg11.dtd">
<svg version="1.1" id="Layer_1" xmlns="http://www.w3.org/2000/svg" xmlns:xlink="http://www.w3.org/1999/xlink" x="0px" y="0px"
	 viewBox="0 0 1197 324" style="enable-background:new 0 0 1197 324;" xml:space="preserve">
<style type="text/css">
	.st0{display:none;fill-rule:evenodd;clip-rule:evenodd;fill:#C1503E;}
	.st1{fill:#FFFFFF;}
	.st2{fill-rule:evenodd;clip-rule:evenodd;fill:#FFFFFF;}
</style>
<rect x="-26" y="-115" class="st0" width="1302" height="586"/>
<g>
	<path class="st1" d="M325.1,112.6l11.5,2.9c-7.2,18.8-10.8,35.5-10.8,50c0,16.8,3.6,34.4,10.8,52.9l-11.5,3
		c-7.4-18.1-11-36.5-11-55.2C314,147.4,317.7,129.5,325.1,112.6z"/>
	<path class="st1" d="M394.9,169l29.4,38.3h-30.3l-22.9-36h-0.2v36h-24.3v-93.5h36.3c9.8,0,17.6,2.4,23.6,7.2c6,4.8,8.9,12,8.9,21.6
		c0,6.7-1.8,12.5-5.4,17.4C406.4,164.8,401.4,167.8,394.9,169z M370.9,132.4v23.3h2.4c11.2,0,16.9-3.9,16.9-11.7
		c0-7.8-5.6-11.7-16.9-11.7H370.9z"/>
	<path class="st1" d="M449.1,166.1c0,18.7-3.7,37.1-11,55.2l-11.5-3c7.2-18.5,10.8-36.2,10.8-52.9c0-14.5-3.6-31.1-10.8-50l11.5-2.9
		C445.4,129.5,449.1,147.4,449.1,166.1z"/>
	<path class="st1" d="M514.1,134.4h-28.9V150h27.4v20.6h-27.4v16.1h28.9v20.6h-53.2v-93.5h53.2V134.4z"/>
	<path class="st1" d="M544.2,113.8l22.6,56.8l22.7-56.8h26.4L576,207.3h-18.8l-39.3-93.5H544.2z"/>
	<path class="st1" d="M637,116.7c7.9-4,16.3-6,25.3-6c9,0,17.4,2,25.3,6c7.9,4,14.2,9.7,19.1,17.2c4.9,7.4,7.3,15.7,7.3,24.9
		c0,15.1-4.9,27.5-14.6,37.1c-9.7,9.6-22.1,14.4-37.1,14.4c-15,0-27.4-4.8-37.1-14.4c-9.7-9.6-14.6-22-14.6-37.1
		c0-9.2,2.4-17.5,7.3-24.9C622.8,126.4,629.1,120.7,637,116.7z M680.9,141.7c-5.2-5-11.4-7.4-18.6-7.4c-7.2,0-13.4,2.5-18.6,7.4
		s-7.8,10.7-7.8,17.2c0,7.9,2.6,14.6,7.7,19.9c5.1,5.3,11.4,8,18.7,8c7.4,0,13.6-2.7,18.7-8c5.1-5.3,7.7-12,7.7-19.9
		C688.7,152.4,686.1,146.7,680.9,141.7z"/>
	<path class="st1" d="M745.5,113.8v72.9h29.1v20.6h-53.4v-93.5H745.5z"/>
	<path class="st1" d="M836.1,113.8h24.3v52.6c0,7.6-0.6,14-1.8,19.2c-1.2,5.2-3.9,9.8-8,13.8c-7,6.9-17.4,10.4-31,10.4
		c-13.6,0-24-3.5-31-10.4c-4.1-4-6.8-8.7-8-13.8c-1.2-5.2-1.8-11.6-1.8-19.2v-52.6h24.3V163c0,3,0.1,5.5,0.2,7.4s0.5,4.2,1.1,6.7
		s1.5,4.5,2.6,6c1.1,1.5,2.7,2.8,4.9,3.8c2.1,1,4.7,1.5,7.7,1.5c3,0,5.5-0.5,7.7-1.5c2.1-1,3.8-2.3,4.9-3.8c1.1-1.5,2-3.5,2.6-6
		s1-4.7,1.1-6.7s0.2-4.5,0.2-7.4V113.8z"/>
	<path class="st1" d="M910.3,134.4v72.9H886v-72.9h-20.1v-20.6h64.5v20.6H910.3z"/>
	<path class="st1" d="M960.3,113.8v93.5H936v-93.5H960.3z"/>
	<path class="st1" d="M993.8,116.7c7.9-4,16.3-6,25.3-6c9,0,17.4,2,25.3,6c7.9,4,14.2,9.7,19.1,17.2c4.9,7.4,7.3,15.7,7.3,24.9
		c0,15.1-4.9,27.5-14.6,37.1c-9.7,9.6-22.1,14.4-37.1,14.4c-15,0-27.4-4.8-37.1-14.4c-9.7-9.6-14.6-22-14.6-37.1
		c0-9.2,2.4-17.5,7.3-24.9C979.6,126.4,985.9,120.7,993.8,116.7z M1037.7,141.7c-5.2-5-11.4-7.4-18.6-7.4c-7.2,0-13.4,2.5-18.6,7.4
		s-7.8,10.7-7.8,17.2c0,7.9,2.6,14.6,7.7,19.9c5.1,5.3,11.4,8,18.7,8c7.4,0,13.6-2.7,18.7-8c5.1-5.3,7.7-12,7.7-19.9
		C1045.5,152.4,1042.9,146.7,1037.7,141.7z"/>
</g>
<g>
	<path class="st1" d="M1102.1,113v57.3h0.2l44.5-57.3h24.3v93.5h-24.3v-57.2h-0.2l-44.5,57.2h-24.3V113H1102.1z"/>
</g>
<g>
	<path class="st2" d="M141.2,157.1c-0.3-0.9-0.8-1.7-1.4-2.3c-0.6-0.6-1.4-0.9-2.2-0.9c-0.8,0-1.6,0.3-2.2,0.9
		c-0.6,0.6-1.1,1.4-1.4,2.3c-0.3,0.9-0.5,1.8-0.7,2.7c-0.1,0.9-0.2,1.7-0.2,2.4s0.1,1.6,0.2,2.5c0.1,0.9,0.4,1.8,0.7,2.7
		c0.3,0.9,0.8,1.7,1.4,2.3c0.6,0.6,1.4,0.9,2.2,0.9c0.8,0,1.6-0.3,2.2-0.9c0.6-0.6,1.1-1.4,1.4-2.3c0.3-0.9,0.5-1.9,0.7-2.7
		c0.1-0.9,0.2-1.7,0.2-2.5s-0.1-1.6-0.2-2.4C141.8,159,141.5,158.1,141.2,157.1z"/>
	<polygon class="st2" points="175.3,165 182,165 182,154 181.6,154 	"/>
	<path class="st2" d="M297.5,156.5l-107.1-30l-2.7-112.2l-61,94.4L19.9,78.7l69.5,86.5l-62.8,94.6l103.5-40.3l67.6,88l-3.9-112.7
		L297.5,156.5z M124,176h-22l11.1-12.1c2.1-2.3,3.1-4.5,3.1-6.7c0-0.9-0.3-1.7-0.9-2.5c-0.6-0.7-1.3-1.1-2.2-1.1
		c-0.9,0-1.6,0.3-2.2,0.9c-0.5,0.6-0.8,1.4-0.8,2.3c0,0.4,0,1.1,0.1,1.1h-7.8c0.1-3,1.1-5.6,3-7.5c1.9-1.9,4.4-2.8,7.6-2.8
		c2.9,0,5.4,0.9,7.4,2.7c2,1.8,3,4.1,3,7c0,1.8-0.4,3.4-1.1,4.7s-1.8,2.7-3.3,4l-4.2,4h9.1V176z M148.7,166.5
		c-0.3,1.4-0.7,2.7-1.3,4c-0.6,1.3-1.3,2.4-2.2,3.3c-0.9,0.9-2,1.7-3.3,2.3c-1.3,0.6-2.7,0.8-4.3,0.8c-1.6,0-3-0.3-4.3-0.8
		c-1.3-0.6-2.4-1.3-3.3-2.3c-0.9-0.9-1.6-2.1-2.2-3.3c-0.6-1.3-1-2.6-1.3-4c-0.3-1.4-0.4-2.8-0.4-4.2c0-1.8,0.2-3.6,0.7-5.3
		c0.5-1.7,1.1-3.3,2-4.7c0.9-1.4,2.1-2.6,3.6-3.4c1.5-0.9,3.2-1.3,5.2-1.3c1.9,0,3.7,0.4,5.2,1.3c1.5,0.9,2.7,2,3.6,3.4
		c0.9,1.4,1.6,3,2,4.7c0.5,1.7,0.7,3.5,0.7,5.3C149.1,163.7,149,165.2,148.7,166.5z M163,176h-7v-21h-4v-6h11V176z M192,170h-4v6h-6
		v-6h-13v-4.2l10-16.8h9v16h4V170z"/>
</g>
</svg>
